<svg id="Layer_1" data-name="Layer 1" xmlns="http://www.w3.org/2000/svg" viewBox="0 0 426.95 437.86">
  <title>astro</title>
  <g id="Leftleg">
    <g>
      <path d="M375.5,404.5s-18.52,37-37.41,71.85L287.5,457.5l-.07-.09c16.16-12.27,37.64-31.59,43.07-50.91,0,0,6-15,6-16S375.5,404.5,375.5,404.5Z" transform="translate(-132 -136.68)" fill="#68bbdc"/>
      <path d="M287.5,457.5l50.59,18.85c-1.71,3.16-3.43,6.31-5.14,9.4l-.45-.25-57.62-18.86-.12-.18c3.33-2.23,7.76-5.31,12.67-9Z" transform="translate(-132 -136.68)" fill="#0081bb"/>
      <path d="M333,485.75v0c-9.09,16.49-18,34.39-30.37,48.69,3.94,0,8,3.6,11.18,5.61,5.14,3.26,10.22,7.84,13,13.32a22,22,0,0,1,2.22,10,12.62,12.62,0,0,1-2.71,7.87c-4.55,5.39-12.35,2.89-18,1q-18.78-6.33-37.8-11.85c-4.44-1.29-9.61-2.19-10.62-7.37-.76-3.94.49-8.33,1.94-12,4.82-12.15,5-25.07,5.47-37.94L268.37,474c0-1.15.09-2.3.13-3.45,0,0,2.4-1.45,6.26-4l.12.18L332.5,485.5Z" transform="translate(-132 -136.68)" fill="#68bbdc"/>
    </g>
    <line x1="142.5" y1="329.82" x2="155.5" y2="320.82" fill="none"/>
  </g>
  <g id="Lefthand">
    <g>
      <path d="M527.5,239.46a8.12,8.12,0,0,1,1-2.18q1.08-2.4,2.13-4.8c.73-1.68,1.46-3.36,2.14-5.07s1-3.63,2.65-4.51c2.26-1.18,6.56.38,6.93,3.06a7.94,7.94,0,0,1-.63,3.67c-1.6,4.67-3.42,9.27-5.24,13.86l7.75-9.54a5.55,5.55,0,0,1,1.5-1.44c2.9-1.65,6.95.7,6.73,4.05a8.53,8.53,0,0,1-1.31,3.5l-4.67,8.42a27.5,27.5,0,0,0,5.17-2.22,6.67,6.67,0,0,1,2.33-.95c2.63-.39,4.85,2.85,5,5.16a3.24,3.24,0,0,1-.28,1.63,4.57,4.57,0,0,1-1,1.27l-1.28,1.2q-9.44,8.94-18.83,17.93l-4-2-22-11s-5-14-5-19c0-3.64,3.62-4.35,6.6-4a1.69,1.69,0,0,1,.7.18,1.92,1.92,0,0,1,.53.57,45.43,45.43,0,0,1,2.72,4.49,13.47,13.47,0,0,1,1.43,2.57c1.27-6.33.39-12.88,1.87-19.2a5,5,0,0,1,.62-1.69c1-1.54,4.06-1.28,5,.18a4.81,4.81,0,0,1,.64,2.3C526.94,230.4,527.2,234.93,527.5,239.46Z" transform="translate(-132 -136.68)" fill="#0081bb"/>
      <path d="M533.49,270.5l4,2C535.84,288.27,524.91,301,515.76,313a63.38,63.38,0,0,1-35.09,23.61c-15.09,4-31.07,3.23-46.45.59-5.18-.88-66.87-15.82-65.72-18.71l3.66-9.14.34.14s81,33,111,18,41.64-40.32,49.82-56.66Z" transform="translate(-132 -136.68)" fill="#bcdeee"/>
      <path d="M511.5,259.5l22,11-.17.34c-8.18,16.34-19.82,41.66-49.82,56.66s-111-18-111-18l-.34-.14.34-.86,9-33s70,22,91,17S511.5,259.5,511.5,259.5Z" transform="translate(-132 -136.68)" fill="#bcdeee"/>
    </g>
  </g>
  <g id="Backpack">
    <g id="Body">
      <g>
        <rect x="350.03" y="327.95" width="12.3" height="11.85" transform="translate(-221.31 396.87) rotate(-67.29)" fill="#22b573"/>
        <path d="M346.82,308.5a2.86,2.86,0,0,1,1.68,3.68l-5,13.5a2.87,2.87,0,0,1-3.68,1.69L322,320.75a2.86,2.86,0,0,1-1.69-3.68l5-13.49a2.86,2.86,0,0,1,3.68-1.69Z" transform="translate(-132 -136.68)" fill="#22b573"/>
        <path d="M364,330.48l-10.93-4.57-4.75,11.35,10.93,4.57Zm-9.68-7.22,10.93,4.57L370,316.48l-10.93-4.57ZM387.5,367.5l1.29-3.51-92.54-34L295,333.52Zm28-83-1.9,5.66L399,336l-21,63L260.5,354.5s8.5-39.2,31-62c0,0,18.74-19.84,22-36l5-8,6.36,6.74-1.36,4.26s17,17,42,24S415.5,284.5,415.5,284.5ZM379,351.71l11.27-27-10.63-4.45-11.28,27ZM348.5,312.18a2.86,2.86,0,0,0-1.68-3.68L329,301.89a2.86,2.86,0,0,0-3.68,1.69l-5,13.49a2.86,2.86,0,0,0,1.69,3.68l17.84,6.62a2.87,2.87,0,0,0,3.68-1.69Z" transform="translate(-132 -136.68)" fill="#bcdeee"/>
        <polygon points="258.25 188.06 246.98 215.03 236.34 210.58 247.62 183.61 258.25 188.06" fill="#22b573"/>
        <rect x="356.03" y="313.95" width="12.3" height="11.85" transform="translate(-204.71 393.81) rotate(-67.29)" fill="#22b573"/>
        <polygon points="256.79 227.31 255.5 230.82 162.97 196.84 164.25 193.33 256.79 227.31" fill="#68bbdc"/>
      </g>
    </g>
    <g id="Rightleg">
      <g id="Rightleg-2" data-name="Rightleg">
        <path d="M336.5,390.5l-7,18c-4.52,8.9-8.92,17.16-15.56,24.62-12.91,14.48-27.75,27.33-44.55,37.09a124.4,124.4,0,0,1-35.78,13.61c-3.12.68-38,5.55-38.06,3.65a126.05,126.05,0,0,1,0,15.67c-.71,7.67-5.77,17.43-14.32,18.64-4.39.63-9.23-2.14-12-5.4a18.25,18.25,0,0,1-2.4-3.79c-2.09-4.37-2.38-9.23-3.67-13.82-1.19-4.24-2-8.6-3.07-12.88L156.5,470.5c-1.12-4.7,1.35-10.93,5.51-13.41a19,19,0,0,1,4.08-1.63c9.5-2.94,18.31-5.67,27-10.63,8.28-4.72,31.41-31.33,31.41-31.33,13-12,35.62-52.1,35.62-52.1Z" transform="translate(-132 -136.68)" fill="#bcdeee"/>
      </g>
      <path d="M261.26,361.79C269.18,364.81,340,391,340,391s-15.78,40.38-43.64,59.44L279,464l-51-53s27.5-34.5,33.5-49.5" transform="translate(-132 -136.68)" fill="#bcdeee"/>
      <path d="M285,460s-15.82-43.54-57.16-49.52l-7.2,7.56s41.94,15.38,54.9,48.42Z" transform="translate(-132 -136.68)" fill="#0081bb"/>
    </g>
    <g id="Backpack-2" data-name="Backpack">
      <g>
        <path d="M215.5,293.5l-2.24,6.82,13.24,5.18c0-1,3-6,3-6Zm26-71L239.27,229,276.5,242.5h1l7-4Zm-38,104s34.83-96.35,49-134l.05-.14c2.26-6,4-10.51,4.95-12.86,7-17,28-11,28-11l18,10s27.71,13.06,26,20l-7,74c-11.42,6.94-55,60-55,60-6.8,29.58-6,23-6,23l-46,1c-8-4-12-13-12-13C200.5,331.5,203.5,326.5,203.5,326.5Z" transform="translate(-132 -136.68)" fill="#bcdeee"/>
        <path d="M253.5,189.5l-.95,2.86-.05.14c-14.43-8.66-27.83.3-35.25,13.33-9.42,16.52-7.38,35.61-11.52,53.72-3.59,15.76-11.43,29.42-21.95,41.56-9,10.36-23,14.63-33.27,23.43-9.95,8.54-11,24.47-7.13,36.25,9.27,28.42,38.05,44.39,67.12,42.65l12.41,8.06c-1,1-8.61,2-8.61,2-34.23,2.09-92.69-33.08-80.71-74.83,3.79-13.18,16.5-20.53,27.17-27.15,20-12.43,32.52-31.1,37.87-54.94,4.3-19.16,2.19-39.36,12-56.85,7.73-13.79,21.67-23.26,36.68-14.1Z" transform="translate(-132 -136.68)" fill="#68bbdc"/>
        <path d="M215.5,293.5l14,6s-3,5-3,6l-13.24-5.18Z" transform="translate(-132 -136.68)" fill="#0081bb"/>
        <polygon points="152.5 101.82 145.5 105.82 144.5 105.82 107.27 92.27 109.5 85.82 152.5 101.82" fill="#0081bb"/>
      </g>
    </g>
    <g id="Righthand">
      <g>
        <path d="M318.56,249.68l-1.06,1.82q-1.58,2.46-3.1,5c-5.14,8.45-10,17.14-16.42,24.7-6.92,8.12-15.06,15.18-21.36,23.84-16.81,23.13-23.69,54.6-27.12,82.49l-35-13c1-116,81-141,81-141ZM287.5,272A10.5,10.5,0,1,0,277,282.5,10.5,10.5,0,0,0,287.5,272Z" transform="translate(-132 -136.68)" fill="#bcdeee"/>
        <path d="M314.4,256.47l.09,0c-.27.73-9.16,24.15-20,35-11,11-26,31-33,64s-6,34-6,34l-6-2c3.43-27.89,10.31-59.36,27.12-82.49,6.3-8.66,14.44-15.72,21.36-23.84C304.42,273.61,309.26,264.92,314.4,256.47Z" transform="translate(-132 -136.68)" fill="#68bbdc"/>
        <circle cx="145" cy="135.32" r="10.5" fill="#1b1464"/>
        <path d="M255.5,389.5s11,10,6,15-13-5-13-5l-1-1c0,6.47-1.77,17.22-9.74,17.93-6.79.62-13.71-3-18.84-7.09-3.43-2.76-9.84-6.42-11.81-10.45a10,10,0,0,1-.81-3.67c-.55-7.74,2.79-11.26,6.62-17.3a9.13,9.13,0,0,0,1.58-3.42l35,13Z" transform="translate(-132 -136.68)" fill="#0081bb"/>
      </g>
    </g>
    <g id="Head">
      <g>
        <path d="M414,148s43,28,28,85c0,0-5,32-31,46,0,0-34.5,8.5-79.5-20.5L295,234s-8-14-5-21,20-51,20-51a5,5,0,0,1,5-1l3,1S348,116,414,148Zm21.48,56.25L436,204a64.87,64.87,0,0,0-4-11c-10.25-21.79-30.13-30.4-44-33-16-3-28,0-37,5a43.6,43.6,0,0,0-5.71,3.81A54.26,54.26,0,0,0,336,178l.3.58-1.8.92-.26.32a11,11,0,1,0-13.9,16.4l.28.14-.12.14-.5.5-5.15,14.72L313,217s-2,5,2,13,27,26,38,32,39,14,58,6c0,0,13.5-6.5,16.5-12.5s8-27,8-27S440.45,215.06,435.48,204.25Z" transform="translate(-132 -136.68)" fill="#bcdeee"/>
        <path d="M436,204l-.52.25a19.63,19.63,0,0,0-4-5.75,135,135,0,0,0-13.43-12A86.08,86.08,0,0,0,393.2,173.1a74.94,74.94,0,0,0-37.34-2.73c-7.05,1.37-13.24,4.95-19.56,8.21L336,178a54.26,54.26,0,0,1,9.29-9.19l.09.11c22.28-12.15,51.53-6.32,71.14,8.47A84.43,84.43,0,0,1,432,193,64.87,64.87,0,0,1,436,204Z" transform="translate(-132 -136.68)" fill="#bcdeee"/>
        <path d="M435.48,204.25c5,10.81,0,24.25,0,24.25s-5,21-8,27S411,268,411,268c-19,8-47,0-58-6s-34-24-38-32-2-13-2-13l1.85-5.28.12,0a117.68,117.68,0,0,0,32.73,25.61c18.94,9.87,44.47,14.88,63.93,3.52,15.05-8.78,17.24-26.65,19.87-42.39A19.63,19.63,0,0,1,435.48,204.25Z" transform="translate(-132 -136.68)" fill="#0081bb"/>
        <path d="M431.5,198.5c-2.63,15.74-4.82,33.61-19.87,42.39-19.46,11.36-45,6.35-63.93-3.52A117.68,117.68,0,0,1,315,211.76l-.12,0L320,197l.5-.5.12-.14a11,11,0,0,0,13.62-16.54l.26-.32,1.8-.92c6.32-3.26,12.51-6.84,19.56-8.21a74.94,74.94,0,0,1,37.34,2.73,86.08,86.08,0,0,1,24.87,13.42A135,135,0,0,1,431.5,198.5Zm-60.05-6.73c4.71-1.14,14.87-5,9.95-11.35a9.26,9.26,0,0,0-5.73-3.06,27.2,27.2,0,0,0-10.29-.14A63.81,63.81,0,0,0,357,180c-2.61.94-5.31,1.37-7.93,2.21a17.91,17.91,0,0,0-3.22,1.37c-2,1.13-4.23,2.55-5.1,4.79a4.83,4.83,0,0,0,1.48,5.68,8.34,8.34,0,0,0,4.52,1.51c4.29.33,8.42-1.09,12.53-2.07S367.44,192.74,371.45,191.77Z" transform="translate(-132 -136.68)" fill="#68bbdc"/>
        <path d="M432,193a84.43,84.43,0,0,0-15.48-15.61c-19.61-14.79-48.86-20.62-71.14-8.47l-.09-.11A43.6,43.6,0,0,1,351,165c9-5,21-8,37-5C401.87,162.6,421.75,171.21,432,193Z" transform="translate(-132 -136.68)" fill="#68bbdc"/>
        <path d="M381.4,180.42c4.92,6.33-5.24,10.21-9.95,11.35-4,1-8.16.74-12.18,1.7s-8.24,2.4-12.53,2.07a8.34,8.34,0,0,1-4.52-1.51,4.83,4.83,0,0,1-1.48-5.68c.87-2.24,3.1-3.66,5.1-4.79a17.91,17.91,0,0,1,3.22-1.37c2.62-.84,5.32-1.27,7.93-2.21a63.81,63.81,0,0,1,8.39-2.76,27.2,27.2,0,0,1,10.29.14A9.26,9.26,0,0,1,381.4,180.42Z" transform="translate(-132 -136.68)" fill="#bcdeee"/>
        <path d="M334.24,179.82a11,11,0,0,1-13.62,16.54Z" transform="translate(-132 -136.68)" fill="#f2f2f2"/>
        <path d="M334.24,179.82l-13.62,16.54-.28-.14a11,11,0,1,1,13.9-16.4Z" transform="translate(-132 -136.68)" fill="#f2f2f2"/>
      </g>
    </g>
  </g>
  <polygon id="bodybelt" points="246.5 261.82 243.5 267.82 127.5 224.82 129.74 217.64 246.5 261.82" fill="#68bbdc"/>
  <path id="neckbelt" d="M412,285l-1-6s-38,5-89-28l-1,7S358,299,412,285Z" transform="translate(-132 -136.68)" fill="#0081bb"/>
</svg>
