<svg xmlns="http://www.w3.org/2000/svg" xmlns:xlink="http://www.w3.org/1999/xlink" viewBox="0 0 907.19 688.7">
  <defs>
    <linearGradient id="linear-gradient" x1="664.65" y1="508.91" x2="254.53" y2="98.79" gradientUnits="userSpaceOnUse">
      <stop offset="0" stop-color="#ffafcb" stop-opacity="0"/>
      <stop offset="1" stop-color="#e678ff"/>
    </linearGradient>
    <linearGradient id="linear-gradient-2" x1="1177.81" y1="876.58" x2="1148.47" y2="674.86" gradientUnits="userSpaceOnUse">
      <stop offset="0" stop-color="#4268db"/>
      <stop offset="0.4" stop-color="#558be4"/>
      <stop offset="0.44" stop-color="#578fe5"/>
      <stop offset="0.49" stop-color="#5e9ce8"/>
      <stop offset="0.64" stop-color="#72c2f2"/>
      <stop offset="0.78" stop-color="#80ddf9"/>
      <stop offset="0.91" stop-color="#89eefd"/>
      <stop offset="1" stop-color="#8cf4ff"/>
    </linearGradient>
    <linearGradient id="linear-gradient-3" x1="1341.37" y1="1055.88" x2="1288.19" y2="775.3" gradientUnits="userSpaceOnUse">
      <stop offset="0" stop-color="#4268db"/>
      <stop offset="0.34" stop-color="#436adc"/>
      <stop offset="0.46" stop-color="#4771dd"/>
      <stop offset="0.51" stop-color="#4a76df"/>
      <stop offset="0.59" stop-color="#4c7ae0"/>
      <stop offset="0.68" stop-color="#5387e3"/>
      <stop offset="0.77" stop-color="#5e9be8"/>
      <stop offset="0.86" stop-color="#6db8f0"/>
      <stop offset="0.95" stop-color="#80ddf9"/>
      <stop offset="1" stop-color="#8cf4ff"/>
    </linearGradient>
    <linearGradient id="linear-gradient-4" x1="1309.23" y1="994.16" x2="1269.37" y2="768.1" gradientUnits="userSpaceOnUse">
      <stop offset="0.11" stop-color="#de009f"/>
      <stop offset="0.35" stop-color="#df41bb"/>
      <stop offset="0.66" stop-color="#e095df"/>
      <stop offset="0.89" stop-color="#e1caf6"/>
      <stop offset="1" stop-color="#e1deff"/>
    </linearGradient>
    <linearGradient id="linear-gradient-5" x1="1374.11" y1="978.55" x2="1185.89" y2="461.45" gradientUnits="userSpaceOnUse">
      <stop offset="0.02" stop-color="#dfff3b"/>
      <stop offset="0.14" stop-color="#eeff94" stop-opacity="0"/>
    </linearGradient>
    <linearGradient id="linear-gradient-6" x1="664.65" y1="508.91" x2="254.53" y2="98.79" gradientUnits="userSpaceOnUse">
      <stop offset="0" stop-color="#fff" stop-opacity="0"/>
      <stop offset="1" stop-color="#fff"/>
    </linearGradient>
    <filter id="luminosity-noclip" x="820.41" y="416.15" width="871.19" height="633.7" filterUnits="userSpaceOnUse" color-interpolation-filters="sRGB">
      <feFlood flood-color="#fff" result="bg"/>
      <feBlend in="SourceGraphic" in2="bg"/>
    </filter>
    <mask id="mask" x="0" y="0" width="871.19" height="633.7" maskUnits="userSpaceOnUse">
      <g filter="url(#luminosity-noclip)">
        <g transform="translate(-820.41 -416.15)">
          <g opacity="0.8" style="mix-blend-mode: hard-light">
            <path d="M1536.62,584.84C1488,492.77,1391.35,430,1280,430c-160.16,0-290,129.84-290,290a288.66,288.66,0,0,0,54.07,168.65Z"/>
          </g>
        </g>
      </g>
    </mask>
    <linearGradient id="linear-gradient-7" x1="1338.3" y1="831.08" x2="1173.7" y2="634.92" gradientUnits="userSpaceOnUse">
      <stop offset="0" stop-color="#cb5180"/>
      <stop offset="0.13" stop-color="#c5517e"/>
      <stop offset="0.3" stop-color="#b54f7a"/>
      <stop offset="0.49" stop-color="#994d72"/>
      <stop offset="0.7" stop-color="#734a67"/>
      <stop offset="0.91" stop-color="#43465a"/>
      <stop offset="1" stop-color="#2e4454"/>
    </linearGradient>
    <linearGradient id="linear-gradient-8" x1="1338.3" y1="831.08" x2="1173.7" y2="634.92" gradientUnits="userSpaceOnUse">
      <stop offset="0" stop-color="#cb5180"/>
      <stop offset="0.01" stop-color="#c8507e" stop-opacity="0.98"/>
      <stop offset="0.5" stop-color="#5d253b" stop-opacity="0.46"/>
      <stop offset="0.84" stop-color="#1a0a10" stop-opacity="0.13"/>
      <stop offset="1" stop-opacity="0"/>
    </linearGradient>
    <mask id="mask-3" x="36" y="28.85" width="871.19" height="659.85" maskUnits="userSpaceOnUse">
      <g transform="translate(-820.41 -416.15)">
        <g id="LowYellow">
          <path d="M1280,995a275,275,0,1,1,194.45-80.55A273.19,273.19,0,0,1,1280,995Z" fill="#fff"/>
        </g>
      </g>
    </mask>
    <linearGradient id="linear-gradient-9" x1="1374.3" y1="886.08" x2="1209.7" y2="689.92" xlink:href="#linear-gradient-8"/>
    <linearGradient id="linear-gradient-10" x1="304.59" y1="376.85" x2="304.59" y2="356.85" gradientUnits="userSpaceOnUse">
      <stop offset="0" stop-color="#5fbaa0"/>
      <stop offset="1" stop-color="#f6ee1e" stop-opacity="0"/>
    </linearGradient>
    <linearGradient id="linear-gradient-11" x1="316.59" y1="313.85" x2="316.59" y2="293.85" xlink:href="#linear-gradient-10"/>
    <linearGradient id="linear-gradient-12" x1="388.59" y1="325.85" x2="388.59" y2="305.85" xlink:href="#linear-gradient-10"/>
    <linearGradient id="linear-gradient-13" x1="368.59" y1="366.85" x2="368.59" y2="346.85" xlink:href="#linear-gradient-10"/>
    <linearGradient id="linear-gradient-14" x1="243.59" y1="341.85" x2="243.59" y2="321.85" xlink:href="#linear-gradient-10"/>
    <linearGradient id="linear-gradient-15" x1="666.59" y1="329.85" x2="666.59" y2="309.85" xlink:href="#linear-gradient-10"/>
    <linearGradient id="linear-gradient-16" x1="430.59" y1="331.85" x2="430.59" y2="311.85" xlink:href="#linear-gradient-10"/>
    <linearGradient id="linear-gradient-17" x1="586.59" y1="491.85" x2="586.59" y2="471.85" xlink:href="#linear-gradient-10"/>
    <linearGradient id="linear-gradient-18" x1="436.59" y1="490.85" x2="436.59" y2="470.85" xlink:href="#linear-gradient-10"/>
    <linearGradient id="linear-gradient-19" x1="426.59" y1="415.85" x2="426.59" y2="395.85" xlink:href="#linear-gradient-10"/>
    <linearGradient id="linear-gradient-20" x1="253.59" y1="430.85" x2="253.59" y2="410.85" xlink:href="#linear-gradient-10"/>
    <linearGradient id="linear-gradient-21" x1="626.59" y1="480.85" x2="626.59" y2="460.85" xlink:href="#linear-gradient-10"/>
    <linearGradient id="linear-gradient-22" x1="542.59" y1="510.85" x2="542.59" y2="490.85" xlink:href="#linear-gradient-10"/>
    <linearGradient id="linear-gradient-23" x1="646.59" y1="425.85" x2="646.59" y2="405.85" xlink:href="#linear-gradient-10"/>
    <linearGradient id="linear-gradient-24" x1="705.59" y1="376.85" x2="705.59" y2="356.85" xlink:href="#linear-gradient-10"/>
    <linearGradient id="linear-gradient-25" x1="571.59" y1="404.85" x2="571.59" y2="384.85" xlink:href="#linear-gradient-10"/>
    <linearGradient id="linear-gradient-26" x1="616.59" y1="376.85" x2="616.59" y2="356.85" xlink:href="#linear-gradient-10"/>
    <linearGradient id="linear-gradient-27" x1="481.59" y1="386.85" x2="481.59" y2="366.85" xlink:href="#linear-gradient-10"/>
    <linearGradient id="linear-gradient-28" x1="534.59" y1="542.85" x2="534.59" y2="522.85" xlink:href="#linear-gradient-10"/>
    <linearGradient id="linear-gradient-29" x1="304.59" y1="500.85" x2="304.59" y2="480.85" xlink:href="#linear-gradient-10"/>
    <linearGradient id="linear-gradient-30" x1="472.59" y1="555.85" x2="472.59" y2="535.85" xlink:href="#linear-gradient-10"/>
    <linearGradient id="linear-gradient-31" x1="378.59" y1="542.85" x2="378.59" y2="522.85" xlink:href="#linear-gradient-10"/>
    <linearGradient id="linear-gradient-32" x1="359.59" y1="440.85" x2="359.59" y2="420.85" xlink:href="#linear-gradient-10"/>
    <linearGradient id="linear-gradient-33" x1="534.59" y1="450.85" x2="534.59" y2="430.85" xlink:href="#linear-gradient-10"/>
    <linearGradient id="linear-gradient-34" x1="569.59" y1="323.85" x2="569.59" y2="303.85" xlink:href="#linear-gradient-10"/>
    <linearGradient id="linear-gradient-35" x1="522.59" y1="358.85" x2="522.59" y2="338.85" xlink:href="#linear-gradient-10"/>
    <linearGradient id="linear-gradient-36" x1="306.59" y1="429.85" x2="306.59" y2="409.85" xlink:href="#linear-gradient-10"/>
    <linearGradient id="linear-gradient-37" x1="636.58" y1="355.54" x2="636.58" y2="343.32" xlink:href="#linear-gradient-10"/>
    <linearGradient id="linear-gradient-38" x1="289.52" y1="330.06" x2="289.52" y2="317.85" xlink:href="#linear-gradient-10"/>
    <linearGradient id="linear-gradient-39" x1="351.18" y1="320.39" x2="351.18" y2="308.18" xlink:href="#linear-gradient-10"/>
    <linearGradient id="linear-gradient-40" x1="334.94" y1="355.43" x2="334.94" y2="343.22" xlink:href="#linear-gradient-10"/>
    <linearGradient id="linear-gradient-41" x1="263.21" y1="359.16" x2="263.21" y2="346.95" xlink:href="#linear-gradient-10"/>
    <linearGradient id="linear-gradient-42" x1="554.16" y1="484.84" x2="554.16" y2="472.62" xlink:href="#linear-gradient-10"/>
    <linearGradient id="linear-gradient-43" x1="398.73" y1="369.84" x2="398.73" y2="334.85" xlink:href="#linear-gradient-10"/>
    <linearGradient id="linear-gradient-44" x1="452.97" y1="355.06" x2="452.97" y2="342.84" xlink:href="#linear-gradient-10"/>
    <linearGradient id="linear-gradient-45" x1="657.22" y1="446.77" x2="657.22" y2="434.55" xlink:href="#linear-gradient-10"/>
    <linearGradient id="linear-gradient-46" x1="474.94" y1="479.16" x2="474.94" y2="466.94" xlink:href="#linear-gradient-10"/>
    <linearGradient id="linear-gradient-47" x1="488.47" y1="459.5" x2="488.47" y2="424.51" xlink:href="#linear-gradient-10"/>
    <linearGradient id="linear-gradient-48" x1="232.83" y1="392.52" x2="232.83" y2="380.3" xlink:href="#linear-gradient-10"/>
    <linearGradient id="linear-gradient-49" x1="576.69" y1="429.05" x2="576.69" y2="416.84" xlink:href="#linear-gradient-10"/>
    <linearGradient id="linear-gradient-50" x1="599.86" y1="513.26" x2="599.86" y2="501.05" xlink:href="#linear-gradient-10"/>
    <linearGradient id="linear-gradient-51" x1="535.93" y1="413.46" x2="535.93" y2="401.25" xlink:href="#linear-gradient-10"/>
    <linearGradient id="linear-gradient-52" x1="574.97" y1="383.54" x2="574.97" y2="371.32" xlink:href="#linear-gradient-10"/>
    <linearGradient id="linear-gradient-53" x1="606.78" y1="470.47" x2="606.78" y2="435.48" xlink:href="#linear-gradient-10"/>
    <linearGradient id="linear-gradient-54" x1="685.07" y1="389.54" x2="685.07" y2="377.32" xlink:href="#linear-gradient-10"/>
    <linearGradient id="linear-gradient-55" x1="395.67" y1="448.17" x2="395.67" y2="413.18" xlink:href="#linear-gradient-10"/>
    <linearGradient id="linear-gradient-56" x1="446.8" y1="551.91" x2="446.8" y2="539.7" xlink:href="#linear-gradient-10"/>
    <linearGradient id="linear-gradient-57" x1="294.78" y1="459.26" x2="294.78" y2="424.27" xlink:href="#linear-gradient-10"/>
    <linearGradient id="linear-gradient-58" x1="458.77" y1="506.85" x2="458.77" y2="494.64" xlink:href="#linear-gradient-10"/>
    <linearGradient id="linear-gradient-59" x1="351.56" y1="466.91" x2="351.56" y2="454.7" xlink:href="#linear-gradient-10"/>
    <linearGradient id="linear-gradient-60" x1="416.98" y1="523.62" x2="416.98" y2="511.41" xlink:href="#linear-gradient-10"/>
    <linearGradient id="linear-gradient-61" x1="461.8" y1="428.73" x2="461.8" y2="416.52" xlink:href="#linear-gradient-10"/>
    <linearGradient id="linear-gradient-62" x1="509.42" y1="373.06" x2="509.42" y2="360.84" xlink:href="#linear-gradient-10"/>
    <linearGradient id="linear-gradient-63" x1="494.8" y1="529.05" x2="494.8" y2="516.84" xlink:href="#linear-gradient-10"/>
    <linearGradient id="linear-gradient-64" x1="498.91" y1="507.9" x2="498.91" y2="495.69" xlink:href="#linear-gradient-10"/>
  </defs>
  <title>glassplanet</title>
  <g style="isolation: isolate">
    <g id="artwork">
      <g>
        <g id="Base" opacity="0.55" style="mix-blend-mode: hard-light">
          <circle cx="459.59" cy="303.85" r="290" fill="url(#linear-gradient)"/>
        </g>
        <g opacity="0.5" style="mix-blend-mode: overlay">
          <path d="M1280,430c-160.16,0-290,129.84-290,290s129.84,290,290,290,290-129.84,290-290S1440.16,430,1280,430Zm194.45,484.45A275,275,0,1,1,1555,720,273.19,273.19,0,0,1,1474.45,914.45Z" transform="translate(-820.41 -416.15)" fill="#ffafcb"/>
        </g>
        <path d="M1181.52,818.73c59.37-4.39,96.44-31.42,132.25-56.44-44.4-24.16-68.27-73.24-133.31-74.84C1119.49,686,1063,727.19,1008.7,763c25.89,19.79,58.29,42.2,110.55,51.82A251.31,251.31,0,0,0,1181.52,818.73Z" transform="translate(-820.41 -416.15)" fill="url(#linear-gradient-2)"/>
        <path d="M1555,718a297,297,0,0,0-58.17-9.13c-48.29-2.87-98.69,5.27-139.27,26-15.28,7.79-29.42,17.49-43.76,27.5-35.81,25-72.88,52.05-132.25,56.44a251.31,251.31,0,0,1-62.27-3.88c-52.26-9.62-84.66-32-110.55-51.82l-.32.22c.07.44.15.88.22,1.32.21,1.29.42,2.58.65,3.87.06.35.13.7.19,1.06.26,1.42.52,2.84.8,4.26,0,.13,0,.25.08.38q1,5.07,2.2,10.08l0,.15.3,1.21c.32,1.32.64,2.63,1,3.94l.3,1.1q2.54,9.63,5.76,19l.27.78c.1.3.21.59.32.89.41,1.19.83,2.38,1.27,3.56.1.28.21.56.31.85l.08.21c.79,2.13,1.62,4.25,2.46,6.36l.33.83q1.32,3.25,2.71,6.47c.07.18.15.36.23.53.17.4.35.79.52,1.18.4.9.8,1.8,1.21,2.7l.74,1.61c.09.2.19.39.28.59q.69,1.5,1.41,3c.3.6.59,1.2.89,1.81l.06.12c.55,1.12,1.1,2.24,1.67,3.35.25.51.52,1,.78,1.51,1.08,2.1,2.2,4.19,3.34,6.26l1.16,2.11c.21.38.43.76.65,1.13.34.6.68,1.2,1,1.8.46.8.92,1.6,1.39,2.39l.28.47,1.37,2.29c.53.87,1.07,1.73,1.61,2.6s1,1.68,1.58,2.52c.74,1.16,1.49,2.31,2.25,3.46l1.92,2.87,0,0c.78,1.15,1.56,2.29,2.36,3.43l.82,1.16.69,1c.7,1,1.41,2,2.13,2.95l.51.68,1,1.42c.77,1,1.56,2.06,2.35,3.08.47.61.93,1.22,1.41,1.82,1.18,1.51,2.37,3,3.59,4.48l.54.66.15.18c1.15,1.4,2.32,2.78,3.5,4.16l1.26,1.44.12.14c.93,1.07,1.86,2.12,2.81,3.17l1.17,1.3.35.38c1,1.07,2,2.13,3,3.18l.44.46c.31.33.61.66.93,1q2.16,2.26,4.39,4.49A275,275,0,0,0,1555,720C1555,719.31,1555,718.63,1555,718Z" transform="translate(-820.41 -416.15)" fill="url(#linear-gradient-3)"/>
        <path d="M1372,818c-99.24,25.87-106.44,91.23-180,96-76.33,5-127.49-61.6-171.31-102a275.27,275.27,0,0,0,514.68,10.44C1479.82,802.76,1416.68,806.35,1372,818Z" transform="translate(-820.41 -416.15)" fill="url(#linear-gradient-4)"/>
        <g opacity="0.2" style="mix-blend-mode: overlay">
          <path d="M1280,994.5c-61.7,0-119.77-19.86-168.1-57.45a277.68,277.68,0,0,0,68.1,8.45,275.5,275.5,0,0,0,194.81-470.31,281.12,281.12,0,0,0-22.35-20.06A274.56,274.56,0,0,1,1280,994.5Z" transform="translate(-820.41 -416.15)" fill="#fff"/>
          <path d="M1354.63,456.25A274.13,274.13,0,1,1,1114.1,938.11,278.15,278.15,0,0,0,1180,946a276,276,0,0,0,195.16-471.16c-6.48-6.48-13.37-12.72-20.53-18.59m-4.35-2.22a279.76,279.76,0,0,1,24.17,21.52A275,275,0,0,1,1180,945a276.9,276.9,0,0,1-70.28-9A275,275,0,1,0,1350.28,454Z" transform="translate(-820.41 -416.15)" fill="#fff"/>
        </g>
        <g id="LowYellow-2" data-name="LowYellow" opacity="0.8" style="mix-blend-mode: hard-light">
          <path d="M1280,995a275,275,0,1,1,194.45-80.55A273.19,273.19,0,0,1,1280,995Z" transform="translate(-820.41 -416.15)" fill="url(#linear-gradient-5)"/>
        </g>
        <g id="Shine" opacity="0.4" style="mix-blend-mode: overlay">
          <circle cx="459.59" cy="303.85" r="290" fill="url(#linear-gradient-6)"/>
        </g>
        <g mask="url(#mask)">
          <g id="ring3" style="mix-blend-mode: color-dodge">
            <path d="M1686.05,431.87c-38-54.29-261.37,36.52-498.88,202.83S787.93,979.84,826,1034.13s261.37-36.52,498.88-202.83S1724.07,486.16,1686.05,431.87Zm-372.69,383c-223.94,156.8-431.16,247.24-462.84,202s124.18-209,348.12-365.84,431.16-247.24,462.84-202S1537.3,658.11,1313.36,814.92Z" transform="translate(-820.41 -416.15)" fill="url(#linear-gradient-7)"/>
          </g>
        </g>
        <g mask="url(#mask)">
          <g id="ring2" style="mix-blend-mode: screen">
            <path d="M1686.05,431.87c-38-54.29-261.37,36.52-498.88,202.83S787.93,979.84,826,1034.13s261.37-36.52,498.88-202.83S1724.07,486.16,1686.05,431.87Zm-372.69,383c-223.94,156.8-431.16,247.24-462.84,202s124.18-209,348.12-365.84,431.16-247.24,462.84-202S1537.3,658.11,1313.36,814.92Z" transform="translate(-820.41 -416.15)" fill="url(#linear-gradient-8)"/>
          </g>
        </g>
        <g mask="url(#mask-3)">
          <g id="ring" opacity="0.15" style="mix-blend-mode: multiply">
            <path d="M1722.05,486.87c-38-54.29-261.37,36.52-498.88,202.83S823.93,1034.84,862,1089.13s261.37-36.52,498.88-202.83S1760.07,541.16,1722.05,486.87Zm-372.69,383c-223.94,156.8-431.16,247.24-462.84,202s124.18-209,348.12-365.84,431.16-247.24,462.84-202S1573.3,713.11,1349.36,869.92Z" transform="translate(-820.41 -416.15)" fill="url(#linear-gradient-9)"/>
          </g>
        </g>
        <path d="M1059.35,638.76a234.39,234.39,0,0,1,54.48-84.93" transform="translate(-820.41 -416.15)" fill="none" stroke="#fff" stroke-linecap="round" stroke-miterlimit="10" stroke-width="20" opacity="0.85"/>
        <path d="M1135.5,534.63A233.24,233.24,0,0,1,1280,485" transform="translate(-820.41 -416.15)" fill="none" stroke="#fff" stroke-linecap="round" stroke-miterlimit="10" stroke-width="20" opacity="0.85"/>
        <g opacity="0.25">
          <g style="mix-blend-mode: screen">
            <circle cx="304.59" cy="366.85" r="10" fill="url(#linear-gradient-10)"/>
          </g>
          <g style="mix-blend-mode: screen">
            <circle cx="316.59" cy="303.85" r="10" fill="url(#linear-gradient-11)"/>
          </g>
          <g style="mix-blend-mode: screen">
            <circle cx="388.59" cy="315.85" r="10" fill="url(#linear-gradient-12)"/>
          </g>
          <g style="mix-blend-mode: screen">
            <circle cx="368.59" cy="356.85" r="10" fill="url(#linear-gradient-13)"/>
          </g>
          <g style="mix-blend-mode: screen">
            <circle cx="243.59" cy="331.85" r="10" fill="url(#linear-gradient-14)"/>
          </g>
          <g style="mix-blend-mode: screen">
            <circle cx="666.59" cy="319.85" r="10" fill="url(#linear-gradient-15)"/>
          </g>
          <g style="mix-blend-mode: screen">
            <circle cx="430.59" cy="321.85" r="10" fill="url(#linear-gradient-16)"/>
          </g>
          <g style="mix-blend-mode: screen">
            <circle cx="586.59" cy="481.85" r="10" fill="url(#linear-gradient-17)"/>
          </g>
          <g style="mix-blend-mode: screen">
            <circle cx="436.59" cy="480.85" r="10" fill="url(#linear-gradient-18)"/>
          </g>
          <g style="mix-blend-mode: screen">
            <circle cx="426.59" cy="405.85" r="10" fill="url(#linear-gradient-19)"/>
          </g>
          <g style="mix-blend-mode: screen">
            <circle cx="253.59" cy="420.85" r="10" fill="url(#linear-gradient-20)"/>
          </g>
          <g style="mix-blend-mode: screen">
            <circle cx="626.59" cy="470.85" r="10" fill="url(#linear-gradient-21)"/>
          </g>
          <g style="mix-blend-mode: screen">
            <circle cx="542.59" cy="500.85" r="10" fill="url(#linear-gradient-22)"/>
          </g>
          <g style="mix-blend-mode: screen">
            <circle cx="646.59" cy="415.85" r="10" fill="url(#linear-gradient-23)"/>
          </g>
          <g style="mix-blend-mode: screen">
            <circle cx="705.59" cy="366.85" r="10" fill="url(#linear-gradient-24)"/>
          </g>
          <g style="mix-blend-mode: screen">
            <circle cx="571.59" cy="394.85" r="10" fill="url(#linear-gradient-25)"/>
          </g>
          <g style="mix-blend-mode: screen">
            <circle cx="616.59" cy="366.85" r="10" fill="url(#linear-gradient-26)"/>
          </g>
          <g style="mix-blend-mode: screen">
            <circle cx="481.59" cy="376.85" r="10" fill="url(#linear-gradient-27)"/>
          </g>
          <g style="mix-blend-mode: screen">
            <circle cx="534.59" cy="532.85" r="10" fill="url(#linear-gradient-28)"/>
          </g>
          <g style="mix-blend-mode: screen">
            <circle cx="304.59" cy="490.85" r="10" fill="url(#linear-gradient-29)"/>
          </g>
          <g style="mix-blend-mode: screen">
            <circle cx="472.59" cy="545.85" r="10" fill="url(#linear-gradient-30)"/>
          </g>
          <g style="mix-blend-mode: screen">
            <circle cx="378.59" cy="532.85" r="10" fill="url(#linear-gradient-31)"/>
          </g>
          <g style="mix-blend-mode: screen">
            <circle cx="359.59" cy="430.85" r="10" fill="url(#linear-gradient-32)"/>
          </g>
          <g style="mix-blend-mode: screen">
            <circle cx="534.59" cy="440.85" r="10" fill="url(#linear-gradient-33)"/>
          </g>
          <g style="mix-blend-mode: screen">
            <circle cx="569.59" cy="313.85" r="10" fill="url(#linear-gradient-34)"/>
          </g>
          <g style="mix-blend-mode: screen">
            <circle cx="522.59" cy="348.85" r="10" fill="url(#linear-gradient-35)"/>
          </g>
          <g style="mix-blend-mode: screen">
            <circle cx="306.59" cy="419.85" r="10" fill="url(#linear-gradient-36)"/>
          </g>
          <g style="mix-blend-mode: screen">
            <ellipse cx="636.58" cy="349.43" rx="6.62" ry="6.11" fill="url(#linear-gradient-37)"/>
          </g>
          <g style="mix-blend-mode: screen">
            <ellipse cx="289.52" cy="323.96" rx="6.62" ry="6.11" fill="url(#linear-gradient-38)"/>
          </g>
          <g style="mix-blend-mode: screen">
            <ellipse cx="351.18" cy="314.29" rx="6.62" ry="6.11" fill="url(#linear-gradient-39)"/>
          </g>
          <g style="mix-blend-mode: screen">
            <ellipse cx="334.94" cy="349.32" rx="6.62" ry="6.11" fill="url(#linear-gradient-40)"/>
          </g>
          <g style="mix-blend-mode: screen">
            <ellipse cx="263.21" cy="353.06" rx="6.62" ry="6.11" fill="url(#linear-gradient-41)"/>
          </g>
          <g style="mix-blend-mode: screen">
            <ellipse cx="554.16" cy="478.73" rx="6.62" ry="6.11" fill="url(#linear-gradient-42)"/>
          </g>
          <g style="mix-blend-mode: screen">
            <ellipse cx="398.73" cy="352.35" rx="12.81" ry="17.49" fill="url(#linear-gradient-43)"/>
          </g>
          <g style="mix-blend-mode: screen">
            <ellipse cx="452.97" cy="348.95" rx="6.62" ry="6.11" fill="url(#linear-gradient-44)"/>
          </g>
          <g style="mix-blend-mode: screen">
            <ellipse cx="657.22" cy="440.66" rx="6.62" ry="6.11" fill="url(#linear-gradient-45)"/>
          </g>
          <g style="mix-blend-mode: screen">
            <ellipse cx="474.94" cy="473.05" rx="6.62" ry="6.11" fill="url(#linear-gradient-46)"/>
          </g>
          <g style="mix-blend-mode: screen">
            <ellipse cx="488.47" cy="442.01" rx="12.81" ry="17.49" fill="url(#linear-gradient-47)"/>
          </g>
          <g style="mix-blend-mode: screen">
            <ellipse cx="232.83" cy="386.41" rx="6.62" ry="6.11" fill="url(#linear-gradient-48)"/>
          </g>
          <g style="mix-blend-mode: screen">
            <ellipse cx="576.69" cy="422.94" rx="6.62" ry="6.11" fill="url(#linear-gradient-49)"/>
          </g>
          <g style="mix-blend-mode: screen">
            <ellipse cx="599.86" cy="507.16" rx="6.62" ry="6.11" fill="url(#linear-gradient-50)"/>
          </g>
          <g style="mix-blend-mode: screen">
            <ellipse cx="535.93" cy="407.35" rx="6.62" ry="6.11" fill="url(#linear-gradient-51)"/>
          </g>
          <g style="mix-blend-mode: screen">
            <ellipse cx="574.97" cy="377.43" rx="6.62" ry="6.11" fill="url(#linear-gradient-52)"/>
          </g>
          <g style="mix-blend-mode: screen">
            <ellipse cx="606.78" cy="452.98" rx="12.81" ry="17.49" fill="url(#linear-gradient-53)"/>
          </g>
          <g style="mix-blend-mode: screen">
            <ellipse cx="685.07" cy="383.43" rx="6.62" ry="6.11" fill="url(#linear-gradient-54)"/>
          </g>
          <g style="mix-blend-mode: screen">
            <ellipse cx="395.67" cy="430.67" rx="12.81" ry="17.49" fill="url(#linear-gradient-55)"/>
          </g>
          <g style="mix-blend-mode: screen">
            <ellipse cx="446.8" cy="545.81" rx="6.62" ry="6.11" fill="url(#linear-gradient-56)"/>
          </g>
          <g style="mix-blend-mode: screen">
            <ellipse cx="294.78" cy="441.77" rx="12.81" ry="17.49" fill="url(#linear-gradient-57)"/>
          </g>
          <g style="mix-blend-mode: screen">
            <ellipse cx="458.77" cy="500.74" rx="6.62" ry="6.11" fill="url(#linear-gradient-58)"/>
          </g>
          <g style="mix-blend-mode: screen">
            <ellipse cx="351.56" cy="460.81" rx="6.62" ry="6.11" fill="url(#linear-gradient-59)"/>
          </g>
          <g style="mix-blend-mode: screen">
            <ellipse cx="416.98" cy="517.52" rx="6.62" ry="6.11" fill="url(#linear-gradient-60)"/>
          </g>
          <g style="mix-blend-mode: screen">
            <ellipse cx="461.8" cy="422.62" rx="6.62" ry="6.11" fill="url(#linear-gradient-61)"/>
          </g>
          <g style="mix-blend-mode: screen">
            <ellipse cx="509.42" cy="366.95" rx="6.62" ry="6.11" fill="url(#linear-gradient-62)"/>
          </g>
          <g style="mix-blend-mode: screen">
            <ellipse cx="494.8" cy="522.94" rx="6.62" ry="6.11" fill="url(#linear-gradient-63)"/>
          </g>
          <g style="mix-blend-mode: screen">
            <ellipse cx="498.91" cy="501.8" rx="6.62" ry="6.11" fill="url(#linear-gradient-64)"/>
          </g>
        </g>
      </g>
    </g>
  </g>
</svg>
