<svg id="Layer_1" data-name="Layer 1" xmlns="http://www.w3.org/2000/svg" xmlns:xlink="http://www.w3.org/1999/xlink" viewBox="0 0 650.43 320">
  <defs>
    <linearGradient id="linear-gradient" x1="531.98" y1="486.02" x2="531.69" y2="486.29" gradientUnits="userSpaceOnUse">
      <stop offset="0" stop-color="#bcb58d"/>
      <stop offset="1" stop-color="#555342"/>
    </linearGradient>
    <linearGradient id="linear-gradient-2" x1="655.12" y1="500.56" x2="580.79" y2="571.3" xlink:href="#linear-gradient"/>
    <linearGradient id="linear-gradient-3" x1="362.26" y1="341.81" x2="1196.97" y2="534.25" gradientUnits="userSpaceOnUse">
      <stop offset="0" stop-color="#bcb58d"/>
      <stop offset="0.01" stop-color="#b8b18a"/>
      <stop offset="0.08" stop-color="#9a9474"/>
      <stop offset="0.15" stop-color="#817c62"/>
      <stop offset="0.23" stop-color="#6d6a54"/>
      <stop offset="0.33" stop-color="#5f5d4a"/>
      <stop offset="0.45" stop-color="#575544"/>
      <stop offset="0.67" stop-color="#555342"/>
    </linearGradient>
    <linearGradient id="linear-gradient-4" x1="418.24" y1="402.13" x2="926.92" y2="402.13" gradientUnits="userSpaceOnUse">
      <stop offset="0" stop-color="#bcb58d"/>
      <stop offset="1" stop-color="#d9cda5"/>
    </linearGradient>
    <linearGradient id="linear-gradient-5" x1="655.12" y1="500.56" x2="580.79" y2="571.3" gradientUnits="userSpaceOnUse">
      <stop offset="0" stop-color="#bcb58d"/>
      <stop offset="0.66" stop-color="#555342"/>
    </linearGradient>
    <linearGradient id="linear-gradient-6" x1="518.92" y1="353.99" x2="829.86" y2="353.99" xlink:href="#linear-gradient"/>
    <linearGradient id="linear-gradient-7" x1="827.54" y1="427.78" x2="828.84" y2="427.78" xlink:href="#linear-gradient"/>
  </defs>
  <title>planet</title>
  <g>
    <path d="M531.42,485.25c.32.56.65,1.12,1,1.67h0C532.06,486.37,531.74,485.81,531.42,485.25Z" transform="translate(-346.35 -245)" fill="url(#linear-gradient)"/>
    <path d="M639.69,524.3a925.47,925.47,0,0,0,103.37,23c-1.84,1-3.7,1.87-5.59,2.74l-1.33.62-1.43.64c-.71.32-1.42.63-2.14.93l-1.4.59-1.64.67-1.27.5c-.72.29-1.45.57-2.18.84l-2.19.8c-1.52.55-3,1.07-4.58,1.57l-2.09.66c-1.56.49-3.13.94-4.71,1.38l-1.94.52c-1.65.44-3.31.84-5,1.22l-2.07.46-2.33.48c-.78.16-1.56.31-2.35.45l-2.35.41c-1.41.24-2.82.46-4.24.66-1,.13-1.93.26-2.9.37l-2,.23c-1.72.19-3.46.35-5.2.48l-.79.06-1.7.11c-.72,0-1.43.09-2.15.11-.55,0-1.09.06-1.64.08l-1.63.05-1.93,0-2.47,0-2.5,0h-.68l-1.64,0-1.36,0c-1.09,0-2.18-.09-3.26-.16-1.37-.07-2.75-.17-4.11-.29l-1.93-.17-2.16-.22c-1.33-.15-2.65-.31-4-.49-.8-.1-1.6-.22-2.39-.34l-2.35-.37-2-.34-1.6-.29c-1.44-.27-2.87-.57-4.3-.88l-1.91-.43-1.86-.44q-3-.72-5.9-1.55l-1.59-.47c-1.33-.39-2.65-.8-4-1.23l-1.86-.62-1.86-.64c-.61-.21-1.23-.43-1.84-.66a158.63,158.63,0,0,1-31.23-15.5c-.54-.34-1.08-.69-1.61-1s-.81-.52-1.21-.8l-1.87-1.27c-.7-.48-1.4-1-2.08-1.47s-1.37-1-2-1.48q-2.14-1.58-4.23-3.24c-1.24-1-2.47-2-3.69-3l-.28-.23c-1-.82-2-1.66-2.9-2.51l-.91-.81-1.69-1.55-1.64-1.54-2.06-2-1.76-1.77c-1.19-1.21-2.35-2.43-3.5-3.68-.57-.62-1.14-1.25-1.7-1.88q-1.69-1.89-3.32-3.84c-.55-.65-1.09-1.31-1.62-2q-1.38-1.69-2.7-3.43c-.66-.86-1.31-1.73-2-2.61l-1.47-2,0,0c-.49-.69-1-1.39-1.46-2.09s-.95-1.4-1.42-2.11-1.1-1.67-1.64-2.51c-.37-.59-.75-1.18-1.11-1.78s-.89-1.45-1.33-2.18A916.11,916.11,0,0,0,639.69,524.3Z" transform="translate(-346.35 -245)" fill="url(#linear-gradient-2)"/>
    <path d="M995.19,502.61c-14.1,50-119.05,66.16-252.12,44.7h0a925.47,925.47,0,0,1-103.37-23A916.11,916.11,0,0,1,532.4,486.92c-.33-.55-.66-1.11-1-1.67.32.56.64,1.12,1,1.67C411.78,436,334.1,369.05,347.94,320c13.39-47.49,108.77-64.46,232.37-47.64A160.25,160.25,0,0,0,511.51,428c38.12,20.17,85.72,39.1,138.53,54,51.12,14.42,100.05,23.07,142.17,26.07A160.14,160.14,0,0,0,815,337.52C933.17,388.19,1008.86,454.16,995.19,502.61Z" transform="translate(-346.35 -245)" fill="url(#linear-gradient-3)"/>
    <path d="M531.42,485.25c.32.56.65,1.12,1,1.67h0C532.06,486.37,531.74,485.81,531.42,485.25Z" transform="translate(-346.35 -245)" fill="#61604c"/>
    <path d="M829.86,405a159.39,159.39,0,0,1-37.65,103.11c-42.12-3-91.05-11.65-142.17-26.07-52.81-14.9-100.41-33.83-138.53-54a160.25,160.25,0,0,1,68.8-155.66A938.23,938.23,0,0,1,815,337.52,159.25,159.25,0,0,1,829.86,405Z" transform="translate(-346.35 -245)" fill="#61604c"/>
    <path d="M925.9,473.59c-7.9,28-60.53,39.76-133.69,34.52-42.12-3-91.05-11.65-142.17-26.07-52.81-14.9-100.41-33.83-138.53-54-62.88-33.26-100-69.9-92.25-97.37,7.89-28,60.36-39.73,133.35-34.55,42.2,3,91.25,11.64,142.51,26.1,49.58,14,94.57,31.52,131.44,50.31C893.72,406.75,933.94,445.1,925.9,473.59Z" transform="translate(-346.35 -245)" fill="url(#linear-gradient-4)"/>
    <path d="M743.06,547.31c-1.84,1-3.7,1.87-5.59,2.74l-1.33.62-1.43.64c-.71.32-1.42.63-2.14.93l-1.4.59-1.64.67-1.27.5c-.72.29-1.45.57-2.18.84l-2.19.8c-1.52.55-3,1.07-4.58,1.57l-2.09.66c-1.56.49-3.13.94-4.71,1.38l-1.94.52c-1.65.44-3.31.84-5,1.22l-2.07.46-2.33.48c-.78.16-1.56.31-2.35.45l-2.35.41c-1.41.24-2.82.46-4.24.66-1,.13-1.93.26-2.9.37l-2,.23c-1.72.19-3.46.35-5.2.48l-.79.06-1.7.11c-.72,0-1.43.09-2.15.11-.55,0-1.09.06-1.64.08l-1.63.05-1.93,0-2.47,0-2.5,0h-.68l-1.64,0-1.36,0c-1.09,0-2.18-.09-3.26-.16-1.37-.07-2.75-.17-4.11-.29l-1.93-.17-2.16-.22c-1.33-.15-2.65-.31-4-.49-.8-.1-1.6-.22-2.39-.34l-2.35-.37-2-.34-1.6-.29c-1.44-.27-2.87-.57-4.3-.88l-1.91-.43-1.86-.44q-3-.72-5.9-1.55l-1.59-.47c-1.33-.39-2.65-.8-4-1.23l-1.86-.62-1.86-.64c-.61-.21-1.23-.43-1.84-.66a158.63,158.63,0,0,1-31.23-15.5c-.54-.34-1.08-.69-1.61-1s-.81-.52-1.21-.8l-1.87-1.27c-.7-.48-1.4-1-2.08-1.47s-1.37-1-2-1.48q-2.14-1.58-4.23-3.24c-1.24-1-2.47-2-3.69-3l-.28-.23c-1-.83-1.94-1.66-2.9-2.51l-.91-.81-1.69-1.55-1.64-1.54-2.06-2-1.76-1.77c-1.19-1.21-2.35-2.43-3.5-3.68-.57-.62-1.14-1.25-1.7-1.88q-1.69-1.89-3.32-3.84c-.55-.65-1.09-1.31-1.62-2q-1.37-1.69-2.7-3.43c-.66-.86-1.31-1.73-2-2.61l-1.47-2,0,0c-.49-.69-1-1.39-1.46-2.09s-.95-1.4-1.42-2.11-1.1-1.67-1.64-2.51c-.37-.59-.75-1.18-1.11-1.78s-.89-1.45-1.33-2.18A916.11,916.11,0,0,0,639.69,524.3,925.47,925.47,0,0,0,743.06,547.31Z" transform="translate(-346.35 -245)" fill="url(#linear-gradient-5)"/>
    <path d="M829.86,405a161.45,161.45,0,0,1-1,18.24v0q-.52,4.56-1.29,9c-10.85,33-86.86,40.6-171,16.77-78.76-22.29-137-64.25-137.58-97.25a158.29,158.29,0,0,1,8.86-20.46A160.06,160.06,0,0,1,815,337.52a158.28,158.28,0,0,1,11.59,35A160.72,160.72,0,0,1,829.86,405Z" transform="translate(-346.35 -245)" fill="url(#linear-gradient-6)"/>
    <path d="M828.83,423.27a26.91,26.91,0,0,1-1,8c-.1.34-.2.68-.31,1Q828.31,427.83,828.83,423.27Z" transform="translate(-346.35 -245)" fill="url(#linear-gradient-7)"/>
  </g>
</svg>
