<svg id="Layer_1" data-name="Layer 1" xmlns="http://www.w3.org/2000/svg" xmlns:xlink="http://www.w3.org/1999/xlink" viewBox="0 0 329 290">
  <defs>
    <clipPath id="clip-path" transform="translate(-595 -216)">
      <path d="M809.84,299.88l21.36,27.71a42.22,42.22,0,0,1,8.12,18.86L818,318.75A42.26,42.26,0,0,0,809.84,299.88Z" fill="none"/>
    </clipPath>
    <clipPath id="clip-path-2" transform="translate(-595 -216)">
      <path d="M679.18,444l-21.35-27.7c-9.18-11.91-13.78-27.42-12.53-45.15l21.36,27.71C665.4,416.59,670,432.09,679.18,444Z" fill="none"/>
    </clipPath>
    <clipPath id="clip-path-3" transform="translate(-595 -216)">
      <path d="M837.64,277.75,859,305.45c-13.75-17.83-37.76-27.6-67.78-24.71-47.28,4.57-94.13,39.09-114.4,81.41l-21.36-27.71c20.28-42.31,67.12-76.84,114.4-81.4C799.88,250.14,823.9,259.91,837.64,277.75Z" fill="none"/>
    </clipPath>
  </defs>
  <title>metro-on</title>
  <path d="M888,345.09l.8-3.42L867.44,314l-.83.08L853,297.12a182.17,182.17,0,0,0-15.3-19.41l-.45-.47a61.4,61.4,0,0,0-22.72-17.67l0,0-.51-.24a72.86,72.86,0,0,0-26.21-6.47l-.44,0q-.87-.08-1.74-.12l-.55,0a103.82,103.82,0,0,0-15.17.38c-39.2,3.78-78.09,28.18-101.8,60.52-4,4.9-10.26,12.88-11.45,18.6-.39.76-.78,1.52-1.15,2.28L639.6,336l-.83,3.55c-2.87,6.56-3.61,15.12-5.28,22.09-.28,1.16-.55,2.33-.75,3.51L631,372.54l7.1,9.21q4.47,7.85,9,15.69c.93,1.64,1.87,3.29,2.82,4.93a58.71,58.71,0,0,0,8,13.93l1.7,2.21a175.66,175.66,0,0,0,13.76,19.06q3,3.53,6.2,6.82c8.84,11.26,21.82,19.25,37.83,22.78,11,2.71,22.64,2.71,34,1,47.07-6.36,92.91-41.8,111.64-84.39.64-1.35,1.26-2.72,1.85-4.09l15.38-1.48,1.51-6.43q2.87-12,5.75-24A27.63,27.63,0,0,0,888,345.09Zm-146.43-19a104.49,104.49,0,0,1,18-9.46l.18-.06c.83-.34,1.66-.67,2.5-1l.48-.17,2.22-.79.68-.22,2-.65.57-.17,2.17-.62.27-.07a84,84,0,0,1,13.59-2.48l.92-.08,1.62-.12,1.1-.06,1.46-.06,1.1,0h1.43l1.08,0,1.41,0,1,.06c.48,0,1,.06,1.42.1l1,.08c.53.05,1,.12,1.55.18l.8.09c.74.11,1.48.22,2.21.35l.87.17c.45.08.9.17,1.34.27l1,.23,1.13.28,1.06.29,1,.3,1.07.34,1,.33,1.06.38.92.36,1,.42.88.4c.62.28,1.24.57,1.85.88l.82.41c.2.87.38,1.75.53,2.65Zm55.84-45.8.89,0-1,0-1.2,0,.37,0Zm3.46-.07h.91l.81,0C802,280.26,801.43,280.25,800.86,280.26Zm5.55.11.61,0-1.93-.09h.4Zm3.85.27.28,0,.66.07-1.9-.17c.28,0,.58,0,.86.06Zm5,.6-1.81-.24.66.08c.22,0,.45.05.67.09Zm-21-.73-.18,0-1.4.1,1.6-.12Zm22.35.95.26,0,.39.07.36.06-1-.16ZM795.28,425.67l-.59.36h0l.49-.3.68-.44.14-.09-.06,0ZM760,405.48l-.87.37c-.82.36-1.64.71-2.47,1l-.71.27-.13.05c-.85.33-1.7.66-2.55,1l-1.16.41-.18.06-.18.06-1.6.53c-.47.16-.94.3-1.42.44s-1.18.36-1.77.52l-1.43.39c-.6.16-1.19.31-1.79.45l-1.44.34-1.8.38c-.46.09-.92.19-1.39.27l-1,.17-1.38.23-1.1.17c-.49.07-1,.11-1.48.18-.66.08-1.31.17-2,.23l-.2,0c-1.26.11-2.5.2-3.72.26s-2.33.07-3.47.07h-.49l-.51,0c-.8,0-1.6,0-2.39-.08l-1.1-.07h-.12l-.64-.06c-.5,0-1-.07-1.48-.13l-.55-.06-.67-.08-1.34-.2-.49-.07c-.54-.09-1.09-.17-1.63-.28l-.78-.16-.9-.18-.89-.21-.68-.16c-.3-.07-.59-.16-.89-.24l-1.13-.3-.79-.23-.81-.28c-.66-.21-1.32-.43-2-.67a3.84,3.84,0,0,1-.36-.14l-1.22-.5c-.35-.14-.71-.28-1-.43l-.71-.32c-.75-.35-1.49-.71-2.22-1.09l0-.17q-.27-1.18-.48-2.4l-.06-.33c-.13-.81-.25-1.62-.34-2.45,0-.12,0-.25-.05-.37-.09-.86-.15-1.72-.2-2.6a2.46,2.46,0,0,0,0-.26c-.05-1-.07-1.95-.06-2.94l90.37-8.73-.17.15-.15.14-.41.37q-1.62,1.43-3.3,2.79l-.36.29-.46.37-1,.74c-.75.58-1.49,1.17-2.25,1.73l-.36.27-.2.15c-1.14.82-2.29,1.63-3.45,2.41l-.06,0c-.42.29-.85.57-1.28.85l-.91.59c-.61.39-1.23.78-1.85,1.15l-.73.45-.58.34c-.61.36-1.23.73-1.85,1.08l-.14.08-.12.06c-.45.26-.91.49-1.36.74l-1.34.73-1.48.75-1.44.72-1.5.7-1.12.51Zm-18.43,35.4.63,0-.63,0-.13,0Zm81.89-41.23h0l.54-.73-.36.48C823.58,399.48,823.52,399.57,823.45,399.65Z" transform="translate(-595 -216)" fill="#e0d9a9"/>
  <g style="isolation: isolate">
    <polygon points="276.72 127.32 255.36 99.62 272.44 97.97 293.79 125.67 276.72 127.32" fill="#c7c196"/>
    <g style="isolation: isolate">
      <g clip-path="url(#clip-path)">
        <g style="isolation: isolate">
          <path d="M839.32,346.45,818,318.75a42.26,42.26,0,0,0-8.12-18.87l21.36,27.71a42.22,42.22,0,0,1,8.12,18.86" transform="translate(-595 -216)" fill="#747158"/>
        </g>
      </g>
    </g>
    <path d="M831.7,386.55c.37-.73.74-1.47,1.1-2.21.1-.22.22-.44.33-.67l.43-.93L812.2,355c-.24.54-.51,1.08-.77,1.61-.35.74-.71,1.47-1.09,2.2l-.57,1.09c-.42.79-.86,1.57-1.3,2.35l-.48.84c-.28.48-.58.95-.87,1.43s-.52.86-.79,1.28-.62.95-.93,1.42-.55.85-.84,1.26l-.58.84c-.39.54-.77,1.09-1.17,1.64-.23.32-.47.63-.71.95-.38.5-.76,1-1.15,1.5-.22.29-.44.57-.67.85-.4.51-.81,1-1.23,1.52l-.69.82-.75.87c-.89,1-1.79,2-2.72,3-.14.14-.27.29-.4.43-1,1.05-2,2.08-3.06,3.1l-.76.73c-.93.89-1.88,1.77-2.85,2.63l-.41.37q-1.62,1.43-3.3,2.79l-.82.66c-1.06.84-2.12,1.67-3.21,2.47l-.36.27c-1.21.9-2.45,1.76-3.71,2.6-.42.29-.85.57-1.28.85l-.91.59c-.61.39-1.23.78-1.85,1.15l-.73.45c-.81.49-1.62,1-2.43,1.42l-.26.14c-.89.51-1.79,1-2.7,1.47l-1.48.75-1.44.72-1.5.7-1.44.66c-1.1.49-2.22,1-3.34,1.42l-.84.32c-.85.33-1.7.66-2.55,1l-1.34.47-1.78.59c-.47.16-.94.3-1.42.44s-1.18.36-1.77.52l-1.43.39c-.6.16-1.19.31-1.79.45l-1.44.34-1.8.38c-.46.09-.92.19-1.39.27-.78.15-1.56.27-2.35.4l-1.1.17c-1.15.16-2.3.3-3.45.41-1.32.13-2.63.22-3.92.28s-2.33.07-3.47.07l-1,0c-.8,0-1.6,0-2.39-.08l-1.22-.08c-.71-.05-1.42-.11-2.12-.19l-1.22-.14q-.92-.12-1.83-.27c-.54-.09-1.09-.17-1.63-.28s-1.12-.22-1.68-.34l-1.57-.37c-.68-.17-1.35-.35-2-.54l-.79-.23c-.94-.29-1.87-.61-2.77-.95a3.84,3.84,0,0,1-.36-.14c-.77-.29-1.53-.61-2.27-.93l-.71-.32c-.82-.38-1.62-.77-2.41-1.19l0,0c-.81-.43-1.6-.89-2.37-1.36l-.5-.32c-.74-.47-1.48-1-2.18-1.47l-.26-.19c-.66-.49-1.31-1-1.94-1.51l-.33-.27c-.65-.56-1.28-1.13-1.9-1.72l-.38-.37c-.61-.6-1.21-1.22-1.79-1.86,0-.07-.11-.13-.16-.19-.61-.69-1.19-1.39-1.75-2.11l21.36,27.7c.27.36.55.71.83,1.05s.61.72.92,1.07l.16.18c.42.47.84.93,1.28,1.37l.51.5.38.36c.55.53,1.12,1.06,1.7,1.56l.2.16.33.27c.63.52,1.28,1,1.94,1.51l.26.2.12.09c.67.48,1.36.94,2.06,1.38l.5.31.6.38c.58.34,1.17.67,1.76,1l.05,0c.57.31,1.16.61,1.75.89l.65.29.71.32c.74.33,1.5.64,2.27.94l.35.14.11,0c.87.33,1.77.62,2.67.9l.79.23c.47.14.94.29,1.43.41l.59.14c.52.13,1,.25,1.57.36l1.68.35,1.63.28c.36.05.7.13,1.06.18s.52.05.77.09l1.22.14,2.12.19,1.21.08c.79,0,1.59.07,2.4.08l1,0c1.12,0,2.25,0,3.4-.06h.07c1.29-.05,2.6-.14,3.92-.27q1.73-.17,3.45-.42l1.1-.17c.79-.12,1.57-.25,2.35-.39.17,0,.34-.05.5-.09s.6-.12.89-.18l1.8-.38,1.44-.34c.6-.14,1.19-.29,1.78-.45l1.44-.39,1.77-.52,1.42-.44,1.77-.59.91-.31.44-.16c.85-.31,1.69-.63,2.54-1,.28-.11.57-.21.85-.33,1.12-.45,2.23-.92,3.34-1.41l.13-.06c.44-.19.87-.4,1.31-.61l1.5-.7c.48-.23,1-.48,1.43-.72l1.49-.75.15-.07c.85-.45,1.7-.92,2.55-1.39l.26-.15c.74-.42,1.49-.85,2.22-1.29l.2-.12.74-.45c.62-.38,1.24-.76,1.85-1.15l.91-.59.86-.56.42-.29c1.25-.85,2.49-1.71,3.71-2.6l.08-.06.29-.22c1.08-.8,2.14-1.62,3.19-2.46l.48-.37.35-.29q1.68-1.37,3.3-2.79l.1-.09.31-.28c1-.86,1.91-1.74,2.85-2.64.14-.13.3-.26.44-.4l.32-.32q1.56-1.53,3.06-3.1a.57.57,0,0,1,.11-.11c.1-.11.19-.22.29-.32.93-1,1.83-2,2.72-3l.39-.44.36-.43.69-.82,1.23-1.52c.22-.28.45-.56.67-.85l.4-.5.75-1,.71-1c.39-.54.78-1.08,1.16-1.63l.59-.84.12-.17.71-1.08.94-1.43c.27-.42.52-.85.78-1.28s.6-.95.88-1.44l.12-.2c.12-.21.23-.42.35-.62.45-.79.89-1.57,1.31-2.36Z" transform="translate(-595 -216)" fill="#bcb58d"/>
    <g style="isolation: isolate">
      <g clip-path="url(#clip-path-2)">
        <g style="isolation: isolate">
          <path d="M679.18,444l-21.35-27.7c-9.18-11.91-13.78-27.42-12.53-45.15l21.36,27.71C665.4,416.59,670,432.09,679.18,444" transform="translate(-595 -216)" fill="#747158"/>
        </g>
      </g>
    </g>
    <polygon points="114.22 143.02 92.86 115.31 222.96 102.75 244.32 130.45 114.22 143.02" fill="#c7c196"/>
    <polygon points="65.96 147.68 44.6 119.97 60.46 118.44 81.82 146.15 65.96 147.68" fill="#c7c196"/>
    <polygon points="57.35 184.24 35.99 156.53 44.6 119.97 65.96 147.68 57.35 184.24" fill="#747057"/>
    <g style="isolation: isolate">
      <g clip-path="url(#clip-path-3)">
        <path d="M837.64,277.75c-.39-.51-.79-1-1.2-1.51q-1.62-2-3.41-3.79T829.29,269c-1.31-1.13-2.69-2.21-4.11-3.23s-3-2-4.57-3-3.36-1.9-5.13-2.75-3.88-1.74-5.91-2.5q-3.41-1.26-7-2.21a79.28,79.28,0,0,0-9.42-1.88,95.42,95.42,0,0,0-17.43-.79q-2.86.12-5.82.41c-3.57.34-7.15.86-10.71,1.54a130.2,130.2,0,0,0-19,5.18q-5.36,1.9-10.58,4.24-4.29,1.92-8.46,4.11c-2.45,1.29-4.86,2.64-7.25,4.06-2.22,1.33-4.42,2.71-6.58,4.15s-4.09,2.79-6.08,4.26-3.84,2.89-5.71,4.4-3.66,3-5.43,4.58-3.5,3.17-5.2,4.81-3.39,3.35-5,5.08-3.32,3.61-4.91,5.46-3.28,3.94-4.84,6c-1.68,2.19-3.3,4.42-4.84,6.68q-2.61,3.85-4.94,7.82-2.61,4.47-4.82,9.07l21.36,27.71q2.2-4.61,4.82-9.07,2.31-4,4.94-7.82c1.54-2.27,3.16-4.5,4.84-6.69,1.56-2,3.17-4,4.84-6s3.22-3.67,4.91-5.45,3.3-3.43,5-5.09,3.43-3.24,5.2-4.8,3.58-3.1,5.42-4.58,3.78-3,5.72-4.4,4-2.89,6.08-4.26,4.36-2.82,6.58-4.15c2.38-1.42,4.8-2.78,7.25-4.06,2.78-1.46,5.6-2.84,8.46-4.11q5.22-2.34,10.58-4.24a129,129,0,0,1,19-5.18q5.34-1,10.71-1.55,2.94-.28,5.82-.4a95.44,95.44,0,0,1,17.43.78,83.94,83.94,0,0,1,9.42,1.88q3.63,1,7,2.22c2,.75,4,1.59,5.91,2.5s3.48,1.77,5.13,2.75,3.1,1.93,4.57,3,2.79,2.1,4.11,3.22,2.55,2.28,3.74,3.49,2.33,2.48,3.41,3.78c.41.5.81,1,1.2,1.51Z" transform="translate(-595 -216)" fill="#e0d9a9"/>
      </g>
    </g>
    <path d="M871.72,343.32l17.07-1.65-8.6,36.57-15.52,1.49c-18,45.72-67.64,84.15-117.7,89s-83.44-25.58-80.31-69.85l-14.31,1.38L661,363.68l15.86-1.53c20.27-42.32,67.12-76.84,114.4-81.41S870.89,303.05,871.72,343.32Zm-118.16,97.4c33.34-3.22,66.37-27.94,80-58L697.77,395.86c-.22,28.74,22.46,48.08,55.79,44.86Zm30.67-130.26c-29.79,2.87-59.33,22.91-75,48.56l130.1-12.57c-4.05-23.74-25.32-38.87-55.09-36Z" transform="translate(-595 -216)" fill="#a7a27e"/>
  </g>
  <g id="grain" opacity="0.05">
    <image width="329" height="290" xlink:href="metro-on1.png"/>
  </g>
  <g style="isolation: isolate">
    <g id="blue3">
      <polygon points="276.72 127.32 255.36 99.62 272.44 97.97 293.79 125.67 276.72 127.32" fill="#c7c196"/>
    </g>
    <g id="darkred2" style="isolation: isolate">
      <g clip-path="url(#clip-path)">
        <g style="isolation: isolate">
          <path d="M839.32,346.45,818,318.75a42.26,42.26,0,0,0-8.12-18.87l21.36,27.71a42.22,42.22,0,0,1,8.12,18.86" transform="translate(-595 -216)" fill="#747158"/>
        </g>
      </g>
    </g>
    <path id="red3" d="M831.7,386.55c.37-.73.74-1.47,1.1-2.21.1-.22.22-.44.33-.67l.43-.93L812.2,355c-.24.54-.51,1.08-.77,1.61-.35.74-.71,1.47-1.09,2.2l-.57,1.09c-.42.79-.86,1.57-1.3,2.35l-.48.84c-.28.48-.58.95-.87,1.43s-.52.86-.79,1.28-.62.95-.93,1.42-.55.85-.84,1.26l-.58.84c-.39.54-.77,1.09-1.17,1.64-.23.32-.47.63-.71.95-.38.5-.76,1-1.15,1.5-.22.29-.44.57-.67.85-.4.51-.81,1-1.23,1.52l-.69.82-.75.87c-.89,1-1.79,2-2.72,3-.14.14-.27.29-.4.43-1,1.05-2,2.08-3.06,3.1l-.76.73c-.93.89-1.88,1.77-2.85,2.63l-.41.37q-1.62,1.43-3.3,2.79l-.82.66c-1.06.84-2.12,1.67-3.21,2.47l-.36.27c-1.21.9-2.45,1.76-3.71,2.6-.42.29-.85.57-1.28.85l-.91.59c-.61.39-1.23.78-1.85,1.15l-.73.45c-.81.49-1.62,1-2.43,1.42l-.26.14c-.89.51-1.79,1-2.7,1.47l-1.48.75-1.44.72-1.5.7-1.44.66c-1.1.49-2.22,1-3.34,1.42l-.84.32c-.85.33-1.7.66-2.55,1l-1.34.47-1.78.59c-.47.16-.94.3-1.42.44s-1.18.36-1.77.52l-1.43.39c-.6.16-1.19.31-1.79.45l-1.44.34-1.8.38c-.46.09-.92.19-1.39.27-.78.15-1.56.27-2.35.4l-1.1.17c-1.15.16-2.3.3-3.45.41-1.32.13-2.63.22-3.92.28s-2.33.07-3.47.07l-1,0c-.8,0-1.6,0-2.39-.08l-1.22-.08c-.71-.05-1.42-.11-2.12-.19l-1.22-.14q-.92-.12-1.83-.27c-.54-.09-1.09-.17-1.63-.28s-1.12-.22-1.68-.34l-1.57-.37c-.68-.17-1.35-.35-2-.54l-.79-.23c-.94-.29-1.87-.61-2.77-.95a3.84,3.84,0,0,1-.36-.14c-.77-.29-1.53-.61-2.27-.93l-.71-.32c-.82-.38-1.62-.77-2.41-1.19l0,0c-.81-.43-1.6-.89-2.37-1.36l-.5-.32c-.74-.47-1.48-1-2.18-1.47l-.26-.19c-.66-.49-1.31-1-1.94-1.51l-.33-.27c-.65-.56-1.28-1.13-1.9-1.72l-.38-.37c-.61-.6-1.21-1.22-1.79-1.86,0-.07-.11-.13-.16-.19-.61-.69-1.19-1.39-1.75-2.11l21.36,27.7c.27.36.55.71.83,1.05s.61.72.92,1.07l.16.18c.42.47.84.93,1.28,1.37l.51.5.38.36c.55.53,1.12,1.06,1.7,1.56l.2.16.33.27c.63.52,1.28,1,1.94,1.51l.26.2.12.09c.67.48,1.36.94,2.06,1.38l.5.31.6.38c.58.34,1.17.67,1.76,1l.05,0c.57.31,1.16.61,1.75.89l.65.29.71.32c.74.33,1.5.64,2.27.94l.35.14.11,0c.87.33,1.77.62,2.67.9l.79.23c.47.14.94.29,1.43.41l.59.14c.52.13,1,.25,1.57.36l1.68.35,1.63.28c.36.05.7.13,1.06.18s.52.05.77.09l1.22.14,2.12.19,1.21.08c.79,0,1.59.07,2.4.08l1,0c1.12,0,2.25,0,3.4-.06h.07c1.29-.05,2.6-.14,3.92-.27q1.73-.17,3.45-.42l1.1-.17c.79-.12,1.57-.25,2.35-.39.17,0,.34-.05.5-.09s.6-.12.89-.18l1.8-.38,1.44-.34c.6-.14,1.19-.29,1.78-.45l1.44-.39,1.77-.52,1.42-.44,1.77-.59.91-.31.44-.16c.85-.31,1.69-.63,2.54-1,.28-.11.57-.21.85-.33,1.12-.45,2.23-.92,3.34-1.41l.13-.06c.44-.19.87-.4,1.31-.61l1.5-.7c.48-.23,1-.48,1.43-.72l1.49-.75.15-.07c.85-.45,1.7-.92,2.55-1.39l.26-.15c.74-.42,1.49-.85,2.22-1.29l.2-.12.74-.45c.62-.38,1.24-.76,1.85-1.15l.91-.59.86-.56.42-.29c1.25-.85,2.49-1.71,3.71-2.6l.08-.06.29-.22c1.08-.8,2.14-1.62,3.19-2.46l.48-.37.35-.29q1.68-1.37,3.3-2.79l.1-.09.31-.28c1-.86,1.91-1.74,2.85-2.64.14-.13.3-.26.44-.4l.32-.32q1.56-1.53,3.06-3.1a.57.57,0,0,1,.11-.11c.1-.11.19-.22.29-.32.93-1,1.83-2,2.72-3l.39-.44.36-.43.69-.82,1.23-1.52c.22-.28.45-.56.67-.85l.4-.5.75-1,.71-1c.39-.54.78-1.08,1.16-1.63l.59-.84.12-.17.71-1.08.94-1.43c.27-.42.52-.85.78-1.28s.6-.95.88-1.44l.12-.2c.12-.21.23-.42.35-.62.45-.79.89-1.57,1.31-2.36Z" transform="translate(-595 -216)" fill="#bcb58d"/>
    <g id="darkred" style="isolation: isolate">
      <g clip-path="url(#clip-path-2)">
        <g style="isolation: isolate">
          <path d="M679.18,444l-21.35-27.7c-9.18-11.91-13.78-27.42-12.53-45.15l21.36,27.71C665.4,416.59,670,432.09,679.18,444" transform="translate(-595 -216)" fill="#747158"/>
        </g>
      </g>
    </g>
    <g id="blue2">
      <polygon points="114.22 143.02 92.86 115.31 222.96 102.75 244.32 130.45 114.22 143.02" fill="#c7c196"/>
    </g>
    <g id="red2">
      <polygon points="65.96 147.68 44.6 119.97 60.46 118.44 81.82 146.15 65.96 147.68" fill="#c7c196"/>
    </g>
    <g id="blue1">
      <polygon points="57.35 184.24 35.99 156.53 44.6 119.97 65.96 147.68 57.35 184.24" fill="#747057"/>
    </g>
    <g id="red1" style="isolation: isolate">
      <g clip-path="url(#clip-path-3)">
        <path d="M837.64,277.75c-.39-.51-.79-1-1.2-1.51q-1.62-2-3.41-3.79T829.29,269c-1.31-1.13-2.69-2.21-4.11-3.23s-3-2-4.57-3-3.36-1.9-5.13-2.75-3.88-1.74-5.91-2.5q-3.41-1.26-7-2.21a79.28,79.28,0,0,0-9.42-1.88,95.42,95.42,0,0,0-17.43-.79q-2.86.12-5.82.41c-3.57.34-7.15.86-10.71,1.54a130.2,130.2,0,0,0-19,5.18q-5.36,1.9-10.58,4.24-4.29,1.92-8.46,4.11c-2.45,1.29-4.86,2.64-7.25,4.06-2.22,1.33-4.42,2.71-6.58,4.15s-4.09,2.79-6.08,4.26-3.84,2.89-5.71,4.4-3.66,3-5.43,4.58-3.5,3.17-5.2,4.81-3.39,3.35-5,5.08-3.32,3.61-4.91,5.46-3.28,3.94-4.84,6c-1.68,2.19-3.3,4.42-4.84,6.68q-2.61,3.85-4.94,7.82-2.61,4.47-4.82,9.07l21.36,27.71q2.2-4.61,4.82-9.07,2.31-4,4.94-7.82c1.54-2.27,3.16-4.5,4.84-6.69,1.56-2,3.17-4,4.84-6s3.22-3.67,4.91-5.45,3.3-3.43,5-5.09,3.43-3.24,5.2-4.8,3.58-3.1,5.42-4.58,3.78-3,5.72-4.4,4-2.89,6.08-4.26,4.36-2.82,6.58-4.15c2.38-1.42,4.8-2.78,7.25-4.06,2.78-1.46,5.6-2.84,8.46-4.11q5.22-2.34,10.58-4.24a129,129,0,0,1,19-5.18q5.34-1,10.71-1.55,2.94-.28,5.82-.4a95.44,95.44,0,0,1,17.43.78,83.94,83.94,0,0,1,9.42,1.88q3.63,1,7,2.22c2,.75,4,1.59,5.91,2.5s3.48,1.77,5.13,2.75,3.1,1.93,4.57,3,2.79,2.1,4.11,3.22,2.55,2.28,3.74,3.49,2.33,2.48,3.41,3.78c.41.5.81,1,1.2,1.51Z" transform="translate(-595 -216)" fill="#e0d9a9"/>
      </g>
    </g>
    <g id="front">
      <path d="M871.72,343.32l17.07-1.65-8.6,36.57-15.52,1.49c-18,45.72-67.64,84.15-117.7,89s-83.44-25.58-80.31-69.85l-14.31,1.38L661,363.68l15.86-1.53c20.27-42.32,67.12-76.84,114.4-81.41S870.89,303.05,871.72,343.32Zm-118.16,97.4c33.34-3.22,66.37-27.94,80-58L697.77,395.86c-.22,28.74,22.46,48.08,55.79,44.86Zm30.67-130.26c-29.79,2.87-59.33,22.91-75,48.56l130.1-12.57c-4.05-23.74-25.32-38.87-55.09-36Z" transform="translate(-595 -216)" fill="#a7a27e"/>
    </g>
    <g id="blue">
      <path d="M888.79,341.67l-8.6,36.57-227.84,22L661,363.68Z" transform="translate(-595 -216)" fill="#a7a27e"/>
    </g>
  </g>
</svg>
